<svg width="120" height="32" viewBox="0 0 120 32" fill="none" xmlns="http://www.w3.org/2000/svg">
<path d="M102.576 30.0817C102.054 29.3521 101.643 28.5518 101.356 27.7056C100.971 28.1717 100.677 28.5071 100.473 28.713C99.693 29.4356 98.6719 29.8534 97.6004 29.8899C96.2493 29.9605 95.089 29.3568 94.1183 28.0787C93.1476 26.8006 92.934 24.9071 93.4787 22.3945C93.6011 21.8743 93.6251 21.6166 93.5507 21.6201C93.5555 21.706 93.2724 22.0414 92.7012 22.6275C92.13 23.2136 91.4677 23.8479 90.713 24.5293C89.9594 25.2107 89.2203 25.8274 88.4967 26.3793C87.7732 26.9313 87.2236 27.2161 86.8493 27.2361C86.4737 27.2561 86.2085 27.2267 86.0549 27.149C85.1406 26.9395 84.5286 26.3934 84.2179 25.5096C83.9023 24.5846 83.7931 23.6055 83.8963 22.6357C83.9119 21.5212 84.1099 20.2691 84.4878 18.8792C84.4122 18.8827 83.9707 19.4205 83.1619 20.4903C82.3532 21.5601 81.4209 22.7864 80.365 24.168C79.309 25.5508 78.2339 26.9124 77.1384 28.2541C76.0429 29.5957 75.1694 30.4972 74.5166 30.9597C73.7883 31.4257 73.2375 31.6681 72.8619 31.6881C72.262 31.7199 71.722 31.4904 71.2457 31.0009C70.3697 30.1041 70.1729 28.8719 70.6553 27.3055C71.1365 25.7391 72.1924 23.2854 73.8207 19.9454C74.3714 18.9745 74.7698 18.3331 75.017 18.0201C75.269 17.7047 75.6541 17.5187 76.0633 17.5164C76.9596 17.3846 77.5368 17.6329 77.796 18.2613C78.0155 18.7733 78.1943 19.3005 78.3311 19.8395C80.5833 16.8962 82.3304 14.7072 83.5711 13.2715C84.8118 11.8357 85.9205 11.0943 86.896 11.0437L87.2332 11.026C88.3731 11.2237 89.0439 11.8098 89.2455 12.7842C89.4495 13.8434 89.4687 14.9285 89.3031 15.9935C89.1579 17.0751 88.9131 18.1425 88.5687 19.1793C88.2436 20.1384 88.12 20.6586 88.2003 20.7398L90.3506 18.7003C90.9685 18.1189 91.6177 17.5705 92.2956 17.0574C93.0192 16.5055 93.6767 16.1289 94.2683 15.9276C94.8598 15.7264 95.305 15.6169 95.6062 15.6016C97.1073 15.524 98.0132 16.2901 98.3252 17.9024C98.4271 18.4108 98.3887 19.0981 98.2088 19.9643C98.0288 20.8304 97.8464 21.653 97.6628 22.4345C97.478 23.2147 97.3448 23.8856 97.262 24.4469C97.1792 25.0083 97.2872 25.2813 97.5872 25.2648C97.8128 25.2531 98.174 24.9777 98.6719 24.4375C99.1699 23.8973 99.7027 23.2912 100.269 22.6204C100.534 22.3062 100.791 21.9979 101.039 21.6931C101.131 21.227 101.247 20.7669 101.389 20.3126C101.884 18.7003 102.579 17.1539 103.458 15.7076C104.272 14.3542 105.292 13.1314 106.483 12.0816C107.634 11.0801 108.768 10.4635 109.885 10.2352L110.561 10.1998C111.762 10.1375 112.748 10.6435 113.52 11.7168C114.291 12.7901 114.463 14.2377 114.032 16.0594C113.832 16.9868 113.518 17.8871 113.102 18.7415C112.678 19.6359 112.155 20.4821 111.542 21.2635C110.978 21.9896 110.309 22.6298 109.554 23.1653C108.877 23.6572 108.068 23.9444 107.227 23.9926C106.554 24.028 105.883 23.8856 105.286 23.5796C105.193 23.4937 105.067 23.4525 104.941 23.4689C104.791 23.4772 104.741 23.9503 104.791 24.8906C104.929 26.0828 105.233 26.8383 105.702 27.156C105.918 27.2431 106.152 27.2749 106.385 27.249C106.985 27.2172 107.74 26.9007 108.649 26.2958C109.559 25.6909 110.499 25.0012 111.475 24.2221C112.416 23.4737 113.316 22.6757 114.171 21.8343C114.993 21.0211 115.621 20.4315 116.053 20.0666C116.269 19.8842 117.551 18.6379 117.693 18.4591C118.536 18.758 119.207 19.2393 119.534 19.6936C119.86 20.1478 120.013 20.5892 119.999 21.0187C119.983 21.4506 119.871 21.8731 119.669 22.2568C119.517 22.5828 119.302 22.877 119.038 23.1253C118.324 23.8479 117.447 24.707 116.409 25.7026C115.371 26.6982 114.273 27.655 113.118 28.5718C112.034 29.4392 110.887 30.2288 109.687 30.9338C108.556 31.5916 107.539 31.9447 106.638 31.9918C106.531 31.9977 106.427 32 106.323 32C104.746 32 103.5 31.361 102.585 30.0817H102.576ZM109.799 15.1238C109.168 15.5369 108.587 16.0194 108.068 16.5631C107.556 17.0786 107.094 17.64 106.69 18.2413C106.487 18.6803 106.387 18.9204 106.39 18.9639C106.392 19.0063 106.473 19.1099 106.632 19.2723C106.725 19.3582 106.85 19.3982 106.976 19.3829C107.352 19.3629 107.752 19.1075 108.178 18.6144C108.602 18.1225 108.972 17.5858 109.278 17.015C109.547 16.5337 109.766 16.0277 109.932 15.504C110.022 15.198 110.027 15.045 109.945 15.045C109.889 15.0556 109.837 15.0838 109.797 15.125L109.799 15.1238ZM57.4095 29.8311C55.3853 28.786 54.3738 26.5406 54.3738 23.0959V13.0278H50.3565V7.50719H54.3738V2.38432L60.7573 0.573131V7.50601H67.5872V13.0267H60.7573V23.0512C60.7501 23.6549 61.0309 24.2268 61.5168 24.5964C61.9728 24.9871 62.5427 25.2272 63.1463 25.2813C63.727 25.3249 64.0762 25.3472 64.195 25.3472C65.2065 25.3472 66.4424 25.0671 67.9003 24.5081V30.6913C66.2037 31.1621 64.627 31.3975 63.1679 31.3975C61.3524 31.3975 59.4326 30.8749 57.4095 29.8299V29.8311ZM29.9317 27.6892C27.5355 25.3037 26.338 22.4627 26.338 19.1663C26.338 15.87 27.5283 13.0278 29.9089 10.6435C32.2895 8.28863 35.1621 7.11059 38.5254 7.11059C41.8587 7.11059 44.7229 8.29569 47.1191 10.6659C49.5154 13.0361 50.7129 15.87 50.7129 19.1675C50.7129 22.4945 49.5226 25.3425 47.1419 27.7127C44.7613 30.0829 41.8887 31.268 38.5266 31.268C35.1933 31.268 32.3291 30.0758 29.9329 27.6915L29.9317 27.6892ZM34.1505 14.7719C32.9806 15.9441 32.3375 17.5258 32.3651 19.1663C32.3399 20.8128 32.9818 22.4004 34.1505 23.5819C36.4232 25.9521 40.2245 26.0663 42.6411 23.8373C42.7299 23.7549 42.8175 23.6702 42.9015 23.5819C44.0702 22.4004 44.7121 20.8116 44.6869 19.1663C44.7145 17.527 44.0714 15.9441 42.9015 14.7719C40.5892 12.4018 36.7555 12.3194 34.3389 14.5884C34.2753 14.6484 34.2129 14.7096 34.1517 14.7719H34.1505ZM3.45933 27.6892C1.15311 25.3048 0 22.478 0 19.2099C0 15.9417 1.14591 12.9537 3.43773 10.5988C5.72956 8.27333 8.48214 7.11059 11.6967 7.11059C14.2261 7.11059 16.3991 7.90497 18.2146 9.49491V0H24.6881V30.9126H18.2158V28.9696C16.4303 30.5007 14.2573 31.2656 11.6979 31.2656C8.51334 31.2656 5.76795 30.0735 3.46053 27.6892H3.45933ZM7.83419 14.7719C6.65588 15.9582 6.00553 17.554 6.02593 19.2099C6.00193 20.8598 6.65348 22.4498 7.83419 23.6255C9.0389 24.8623 10.5352 25.4802 12.3206 25.4802C14.1061 25.4802 15.5352 24.8541 16.7843 23.6031C18.0346 22.3521 18.6598 20.8869 18.6598 19.2087C18.6598 17.5305 18.0346 16.0583 16.7843 14.792C15.534 13.5257 14.0461 12.8925 12.3194 12.8925C10.534 12.8925 9.0377 13.5186 7.83299 14.7696L7.83419 14.7719Z" fill="#1F71FF"/>
</svg>
